<?xml version="1.0" encoding="UTF-8" standalone="no"?>
<!-- Created with Inkscape (http://www.inkscape.org/) -->

<svg
   version="1.1"
   id="svg1"
   width="228.76599"
   height="204.55774"
   viewBox="0 0 228.76599 204.55773"
   sodipodi:docname="Orientacion_Ventana.pdf"
   xmlns:inkscape="http://www.inkscape.org/namespaces/inkscape"
   xmlns:sodipodi="http://sodipodi.sourceforge.net/DTD/sodipodi-0.dtd"
   xmlns="http://www.w3.org/2000/svg"
   xmlns:svg="http://www.w3.org/2000/svg">
  <defs
     id="defs1">
    <clipPath
       clipPathUnits="userSpaceOnUse"
       id="clipPath3">
      <path
         d="M 546,0 H 9921 V 3052 H 546 V 0"
         transform="matrix(1,0,0,-1,-5735,2326)"
         id="path3" />
    </clipPath>
    <clipPath
       clipPathUnits="userSpaceOnUse"
       id="clipPath4">
      <path
         d="M 546,0 H 9921 V 3052 H 546 V 0"
         transform="matrix(1,0,0,-1,-5720,118.99958)"
         id="path4" />
    </clipPath>
    <clipPath
       clipPathUnits="userSpaceOnUse"
       id="clipPath5">
      <path
         d="M 546,0 H 9921 V 3052 H 546 V 0"
         transform="matrix(1,0,0,-1,-4416,1240)"
         id="path5" />
    </clipPath>
    <clipPath
       clipPathUnits="userSpaceOnUse"
       id="clipPath6">
      <path
         d="M 546,0 H 9921 V 3052 H 546 V 0"
         transform="matrix(1,0,0,-1,-7004,1250)"
         id="path6" />
    </clipPath>
    <clipPath
       clipPathUnits="userSpaceOnUse"
       id="clipPath8">
      <path
         d="M 546,0 H 9921 V 3052 H 546 V 0"
         transform="translate(-4.1666667e-6,4.1666667e-4)"
         id="path8" />
    </clipPath>
    <clipPath
       clipPathUnits="userSpaceOnUse"
       id="clipPath10">
      <path
         d="M 546,0 H 9921 V 3052 H 546 V 0"
         transform="translate(-4.1666667e-6,4.1666667e-4)"
         id="path10" />
    </clipPath>
    <clipPath
       clipPathUnits="userSpaceOnUse"
       id="clipPath12">
      <path
         d="M 546,0 H 9921 V 3052 H 546 V 0"
         transform="translate(-4.1666667e-6,4.1666667e-4)"
         id="path12" />
    </clipPath>
    <clipPath
       clipPathUnits="userSpaceOnUse"
       id="clipPath14">
      <path
         d="M 546,0 H 9921 V 3052 H 546 V 0"
         transform="translate(-4.1666667e-6,4.1666667e-4)"
         id="path14" />
    </clipPath>
    <clipPath
       clipPathUnits="userSpaceOnUse"
       id="clipPath16">
      <path
         d="M 546,0 H 9921 V 3052 H 546 V 0"
         transform="translate(-4.1666667e-6,4.1666667e-4)"
         id="path16" />
    </clipPath>
  </defs>
  <sodipodi:namedview
     id="namedview1"
     pagecolor="#ffffff"
     bordercolor="#000000"
     borderopacity="0.25"
     inkscape:showpageshadow="2"
     inkscape:pageopacity="0.0"
     inkscape:pagecheckerboard="0"
     inkscape:deskcolor="#d1d1d1">
    <inkscape:page
       x="0"
       y="0"
       width="228.76599"
       height="204.55772"
       id="page2"
       margin="0"
       bleed="0" />
  </sodipodi:namedview>
  <g
     id="layer-oc1"
     inkscape:groupmode="layer"
     inkscape:label="0"
     transform="translate(-373.80567,-845.05832)">
    <path
       id="path1"
       d="M 5091,2197 H 6721 V 567 H 5091 v 1630"
       style="fill:none;stroke:#000000;stroke-width:12;stroke-linecap:round;stroke-linejoin:round;stroke-miterlimit:10;stroke-dasharray:none;stroke-opacity:1"
       transform="matrix(0.08,0,0,-0.08,18.666667,1058.6667)" />
    <path
       id="path2"
       d="M 5987,2197 H 5824 V 991 h -163 l 245,-424 244,424 h -163 v 1206"
       style="fill:none;stroke:#000000;stroke-width:12;stroke-linecap:round;stroke-linejoin:round;stroke-miterlimit:10;stroke-dasharray:none;stroke-opacity:1"
       transform="matrix(0.08,0,0,-0.08,18.666667,1058.6667)" />
    <text
       id="text2"
       xml:space="preserve"
       transform="matrix(0.08,0,0,0.08,477.46667,872.58667)"
       clip-path="url(#clipPath3)"><tspan
         id="tspan2"
         style="font-variant:normal;font-weight:normal;font-size:480.713px;font-family:Arial;writing-mode:lr-tb;fill:#000000;fill-opacity:1;fill-rule:nonzero;stroke:none"
         x="0"
         y="0">N</tspan></text>
    <text
       id="text3"
       xml:space="preserve"
       transform="matrix(0.08,0,0,0.08,476.26667,1049.1467)"
       clip-path="url(#clipPath4)"><tspan
         id="tspan3"
         style="font-variant:normal;font-weight:normal;font-size:480.713px;font-family:Arial;writing-mode:lr-tb;fill:#000000;fill-opacity:1;fill-rule:nonzero;stroke:none"
         x="0"
         y="0">S</tspan></text>
    <text
       id="text4"
       xml:space="preserve"
       transform="matrix(0.08,0,0,0.08,371.94667,959.46667)"
       clip-path="url(#clipPath5)"><tspan
         id="tspan4"
         style="font-variant:normal;font-weight:normal;font-size:480.713px;font-family:Arial;writing-mode:lr-tb;fill:#000000;fill-opacity:1;fill-rule:nonzero;stroke:none"
         x="0"
         y="0">O</tspan></text>
    <text
       id="text5"
       xml:space="preserve"
       transform="matrix(0.08,0,0,0.08,578.98667,958.66667)"
       clip-path="url(#clipPath6)"><tspan
         id="tspan5"
         style="font-variant:normal;font-weight:normal;font-size:480.713px;font-family:Arial;writing-mode:lr-tb;fill:#000000;fill-opacity:1;fill-rule:nonzero;stroke:none"
         x="0"
         y="0">E</tspan></text>
    <path
       id="path7"
       d="M 5252,881 H 6566"
       style="fill:none;stroke:#000000;stroke-width:12;stroke-linecap:round;stroke-linejoin:round;stroke-miterlimit:10;stroke-dasharray:none;stroke-opacity:1"
       transform="matrix(0.08,0,0,-0.08,18.666667,1058.6667)"
       clip-path="url(#clipPath8)" />
    <path
       id="path9"
       d="M 5252,1422 H 6566"
       style="fill:none;stroke:#000000;stroke-width:12;stroke-linecap:round;stroke-linejoin:round;stroke-miterlimit:10;stroke-dasharray:none;stroke-opacity:1"
       transform="matrix(0.08,0,0,-0.08,18.666667,1058.6667)"
       clip-path="url(#clipPath10)" />
    <path
       id="path11"
       d="M 5252,1963 H 6566"
       style="fill:none;stroke:#000000;stroke-width:12;stroke-linecap:round;stroke-linejoin:round;stroke-miterlimit:10;stroke-dasharray:none;stroke-opacity:1"
       transform="matrix(0.08,0,0,-0.08,18.666667,1058.6667)"
       clip-path="url(#clipPath12)" />
    <path
       id="path13"
       d="M 5252,1668 H 6566"
       style="fill:none;stroke:#000000;stroke-width:12;stroke-linecap:round;stroke-linejoin:round;stroke-miterlimit:10;stroke-dasharray:none;stroke-opacity:1"
       transform="matrix(0.08,0,0,-0.08,18.666667,1058.6667)"
       clip-path="url(#clipPath14)" />
    <path
       id="path15"
       d="M 5252,1112 H 6566"
       style="fill:none;stroke:#000000;stroke-width:12;stroke-linecap:round;stroke-linejoin:round;stroke-miterlimit:10;stroke-dasharray:none;stroke-opacity:1"
       transform="matrix(0.08,0,0,-0.08,18.666667,1058.6667)"
       clip-path="url(#clipPath16)" />
  </g>
</svg>
